<?xml version="1.0" encoding="utf-8"?>
<!-- Generator: Adobe Illustrator 18.0.0, SVG Export Plug-In . SVG Version: 6.00 Build 0)  -->
<!DOCTYPE svg PUBLIC "-//W3C//DTD SVG 1.1//EN" "http://www.w3.org/Graphics/SVG/1.1/DTD/svg11.dtd">
<svg version="1.1" id="Layer_1" xmlns="http://www.w3.org/2000/svg" xmlns:xlink="http://www.w3.org/1999/xlink" x="0px" y="0px"
	 viewBox="0 0 418 151.4" enable-background="new 0 0 418 151.4" xml:space="preserve">
<g enable-background="new    ">
	<path fill="#303030" d="M49.8,127.3c-9.3,0-18-1.4-26.4-4.3c-8.3-2.9-15.7-7.2-22.1-12.9l16-19.1c10.3,8.3,21.5,12.4,33.5,12.4
		c3.8,0,6.8-0.6,8.8-1.8c2-1.2,3-3,3-5.2V96c0-1.1-0.2-2-0.7-2.9c-0.5-0.8-1.4-1.6-2.7-2.4c-1.3-0.8-3.1-1.5-5.3-2.3
		c-2.2-0.7-5.1-1.5-8.6-2.3c-5.5-1.3-10.6-2.7-15.4-4.2c-4.7-1.5-8.8-3.5-12.3-5.9c-3.5-2.4-6.3-5.4-8.3-9c-2-3.6-3-8-3-13.3v-0.3
		c0-4.8,0.9-9.2,2.7-13.3c1.8-4,4.5-7.5,8-10.5c3.5-2.9,7.7-5.2,12.6-6.9c4.9-1.6,10.5-2.4,16.7-2.4c8.9,0,16.8,1.2,23.7,3.5
		c6.9,2.3,13.2,5.8,18.8,10.3L74.4,54.5c-4.7-3.3-9.6-5.9-14.5-7.6c-5-1.7-9.8-2.6-14.4-2.6c-3.4,0-6,0.6-7.8,1.9
		c-1.7,1.3-2.6,2.8-2.6,4.7v0.3c0,1.2,0.3,2.2,0.8,3.1c0.5,0.9,1.5,1.7,2.8,2.4c1.3,0.7,3.2,1.5,5.5,2.2c2.3,0.7,5.2,1.5,8.8,2.3
		c5.9,1.3,11.2,2.8,16,4.5c4.8,1.7,8.8,3.8,12.2,6.3c3.3,2.5,5.9,5.4,7.7,8.9s2.7,7.6,2.7,12.5v0.3c0,5.3-1,10-3,14.2
		c-2,4.1-4.9,7.6-8.5,10.5c-3.6,2.9-8,5.1-13.1,6.6C61.8,126.6,56.1,127.3,49.8,127.3z"/>
	<path fill="#303030" d="M135.7,127.2c-8.5,0-15.1-2-19.9-6.1c-4.8-4-7.1-10.8-7.1-20.4V68.2h-9.5V45.6h9.5V25.4h28.2v20.2h18.6
		v22.6h-18.6v27c0,2.9,0.6,4.9,1.9,6.1c1.3,1.2,3.2,1.8,5.8,1.8c1.9,0,3.7-0.2,5.5-0.7c1.8-0.5,3.5-1.1,5.2-1.9v22
		c-2.6,1.4-5.5,2.5-8.7,3.3C143.3,126.7,139.7,127.2,135.7,127.2z"/>
	<path fill="#303030" d="M190.4,127.3c-3.8,0-7.4-0.5-10.6-1.6c-3.2-1.1-6.1-2.7-8.5-4.7c-2.4-2.1-4.3-4.6-5.7-7.7
		c-1.4-3.1-2.1-6.6-2.1-10.6v-0.3c0-4.1,0.8-7.8,2.3-10.9c1.5-3.2,3.6-5.8,6.4-7.8c2.7-2.1,6-3.6,9.8-4.7c3.8-1.1,8.1-1.6,12.8-1.6
		c3.7,0,7.3,0.3,10.7,1c3.4,0.6,6.2,1.4,8.5,2.1V79c0-4.1-1.3-7.3-3.9-9.6c-2.6-2.3-6.6-3.4-12-3.4c-4.2,0-8.1,0.4-11.5,1.2
		c-3.4,0.8-6.9,1.9-10.5,3.2l-5.8-19.8c4.5-1.9,9.3-3.4,14.4-4.5c5.1-1.1,11.1-1.7,17.9-1.7c7.2,0,13.3,0.8,18.2,2.5
		c5,1.7,9,4.1,12.2,7.2c3.1,3,5.2,6.5,6.6,10.7c1.3,4.2,2,9.1,2,14.7v45.9h-27.8v-8.3c-2.8,3.1-6,5.5-9.8,7.3
		C200.3,126.4,195.7,127.3,190.4,127.3z M200.4,109.7c4.1,0,7.5-1.2,10-3.5c2.6-2.4,3.8-5.6,3.8-9.6v-3.7c-1.4-0.6-3-1.1-4.9-1.5
		c-1.9-0.4-3.9-0.6-6-0.6c-4.1,0-7.3,0.9-9.5,2.7c-2.2,1.8-3.3,4.2-3.3,7.2v0.3c0,2.8,0.9,4.9,2.8,6.4
		C195.2,109,197.6,109.7,200.4,109.7z"/>
	<path fill="#303030" d="M287.7,127.3c-6.8,0-13.4-1-19.8-2.9c-6.4-1.9-12.4-4.9-18-8.9l10.5-17c4.6,3.1,9.3,5.3,14.1,6.9
		c4.8,1.5,9.2,2.3,13.4,2.3c4.7,0,7.1-1.4,7.1-4.3v-0.3c0-1.6-1.1-2.8-3.2-3.7c-2.2-0.9-5.4-1.9-9.6-3.1c-3.9-1-7.6-2.1-11.1-3.5
		c-3.4-1.3-6.5-3-9-4.9c-2.6-1.9-4.6-4.3-6.1-7c-1.5-2.8-2.2-6.2-2.2-10.2v-0.3c0-4.2,0.8-8,2.4-11.3c1.6-3.3,3.9-6.1,6.7-8.3
		c2.9-2.2,6.2-3.9,10.1-5.1c3.9-1.2,8.1-1.8,12.8-1.8c5.9,0,11.7,0.8,17.4,2.4c5.7,1.6,10.9,3.9,15.5,6.9L309.1,71
		c-4.1-2.3-8.3-4.1-12.6-5.4c-4.2-1.3-7.9-2-11.1-2c-2.2,0-3.8,0.4-4.9,1.1c-1.1,0.7-1.6,1.7-1.6,2.7v0.3c0,1.6,1.1,2.8,3.3,3.8
		c2.2,0.9,5.4,2,9.7,3.3c3.9,1.1,7.6,2.3,11.1,3.6c3.4,1.3,6.4,3,9,4.9c2.6,1.9,4.6,4.3,6.1,7c1.5,2.8,2.2,6.1,2.2,9.9v0.3
		c0,4.4-0.8,8.3-2.4,11.6c-1.6,3.3-3.8,6.1-6.6,8.3c-2.9,2.3-6.3,4-10.3,5.1C297,126.7,292.5,127.3,287.7,127.3z"/>
	<path fill="#303030" d="M331.9,17.7h28.2v38.8c2.5-3.3,5.7-6.3,9.5-8.9c3.8-2.6,8.5-3.8,14.2-3.8c8.6,0,15.3,2.6,20.1,7.8
		c4.8,5.2,7.2,12.4,7.2,21.6v52.3h-28.2V82.3c0-4.4-1-7.8-3.1-10c-2-2.3-4.7-3.4-8-3.4c-3.4,0-6.2,1.1-8.4,3.4
		c-2.2,2.3-3.3,5.6-3.3,10v43.3h-28.2V17.7z"/>
</g>
</svg>
