<svg id="Layer_1" data-name="Layer 1" xmlns="http://www.w3.org/2000/svg" viewBox="0 0 120.78 14.06"><defs><style>.cls-1{fill:#fff;}</style></defs><title>logo-undefined</title><g id="Text"><path class="cls-1" d="M1.6,12.52A6.11,6.11,0,0,1,0,7.91V0H3V7.83a3.67,3.67,0,0,0,.79,2.56,2.83,2.83,0,0,0,2.2.86,2.89,2.89,0,0,0,2.2-.83A3.49,3.49,0,0,0,9,7.93V0h3V7.81a8,8,0,0,1-.42,2.75,5.19,5.19,0,0,1-1.22,1.95A5,5,0,0,1,8.5,13.67,7.73,7.73,0,0,1,6,14.06,6.06,6.06,0,0,1,1.6,12.52Z"/><path class="cls-1" d="M18,0l6.49,8.52V0h3V13.84H24.88L18.18,5v8.8h-3V0Z"/><path class="cls-1" d="M36.2,0a8.19,8.19,0,0,1,3,.52A7,7,0,0,1,41.51,2,6.48,6.48,0,0,1,43,4.16a6.88,6.88,0,0,1,.53,2.72v0A7,7,0,0,1,43,9.65a6.46,6.46,0,0,1-1.51,2.2,7.16,7.16,0,0,1-2.33,1.46,8,8,0,0,1-3,.53H30.8V0Zm1.7,10.8a3.65,3.65,0,0,0,1.32-.85,4,4,0,0,0,.85-1.31A4.41,4.41,0,0,0,40.37,7v0a4.51,4.51,0,0,0-.31-1.68,4,4,0,0,0-.85-1.32,3.77,3.77,0,0,0-1.32-.86,4.57,4.57,0,0,0-1.7-.31H33.84v8.34H36.2A4.7,4.7,0,0,0,37.9,10.8Z"/><path class="cls-1" d="M56.71,0V2.71H49.29V5.52h6.53V8.23H49.29v2.91h7.51v2.71H46.27V0Z"/><path class="cls-1" d="M70.06,0V2.77h-7.5V5.71h6.6V8.48h-6.6v5.36h-3V0Z"/><path class="cls-1" d="M75.68,0V13.84h-3V0Z"/><path class="cls-1" d="M82,0l6.49,8.52V0h3V13.84H88.85L82.15,5v8.8h-3V0Z"/><path class="cls-1" d="M105.21,0V2.71H97.8V5.52h6.53V8.23H97.8v2.91h7.51v2.71H94.77V0Z"/><path class="cls-1" d="M113.42,0a8.19,8.19,0,0,1,3,.52A7,7,0,0,1,118.73,2a6.46,6.46,0,0,1,1.51,2.19,6.87,6.87,0,0,1,.53,2.72v0a6.94,6.94,0,0,1-.53,2.73,6.44,6.44,0,0,1-1.51,2.2,7.15,7.15,0,0,1-2.33,1.46,8,8,0,0,1-3,.53H108V0Zm1.7,10.8a3.65,3.65,0,0,0,1.31-.85,4,4,0,0,0,.85-1.31A4.42,4.42,0,0,0,117.59,7v0a4.52,4.52,0,0,0-.31-1.68,3.93,3.93,0,0,0-.85-1.32,3.77,3.77,0,0,0-1.31-.86,4.57,4.57,0,0,0-1.7-.31h-2.35v8.34h2.35A4.7,4.7,0,0,0,115.12,10.8Z"/></g></svg>