<?xml version="1.0" encoding="utf-8"?>
<!-- Generator: Adobe Illustrator 19.1.0, SVG Export Plug-In . SVG Version: 6.00 Build 0)  -->
<svg version="1.1" xmlns="http://www.w3.org/2000/svg" xmlns:xlink="http://www.w3.org/1999/xlink" x="0px" y="0px" width="560.8px"
	 height="343.3px" viewBox="0 0 560.8 343.3" style="enable-background:new 0 0 560.8 343.3;" xml:space="preserve">
<style type="text/css">
	.st0{display:none;fill:#3A50A2;stroke:#3A51A2;stroke-width:10;stroke-linecap:round;stroke-linejoin:round;stroke-miterlimit:10;}
	.st1{fill:#ED1F24;}
	.st2{display:none;fill:#FFFFFF;}
	.st3{font-family:'Avenir-Heavy';}
	.st4{font-size:222.9685px;}
	.st5{letter-spacing:-45;}
	.st6{fill:none;stroke:#ED1F24;stroke-width:8;stroke-miterlimit:10;}
	.st7{fill:#FFFFFF;}
	.st8{letter-spacing:-11;}
	.st9{display:none;}
	.st10{display:none;fill:#010101;}
	.st11{display:inline;fill:#ED1F24;}
	.st12{clip-path:url(#RED_2_);}
	.st13{letter-spacing:-6;}
	.st14{letter-spacing:164;}
	.st15{font-size:212.8157px;}
	.st16{letter-spacing:-26.7;}
</style>
<g id="baggie">
	<path id="BLUE" class="st0" d="M401.9,287.7c-7.9,1.3-19.4,1.9-32-2c-18.4-5.7-29.6-17.9-35-24c-13.8-15.4-9.6-21.2-19-27
		c-18-11.1-38.5,6.8-51-4c-8.8-7.6-2.1-19.4-9-29c-6.6-9.2-25.1-15.6-79-1l-0.6,99h225.6V287.7z"/>
	<path id="RED" class="st1" d="M409.2,298.4c-8.7,1.8,14.9-20.2,0-19.7c-18.7,0.7-24.1-3.9-30.1-12.3c-15.1-21.3-37.4,1.2-49.3-27.7
		c-9.5-23.1-44.1-0.1-57.9-15.1c-9.7-10.5,1.6-9.1-5.9-22.4c-7.2-12.7-32.2-16.7-91.5,3.4V319l234.6-4V298.4z"/>
</g>
<g id="STASH">
	<text transform="matrix(1 0 0 1 108.2072 325.9672)" class="st2 st3 st4 st5">T</text>
	<g>
		<path class="st1" d="M401.3,17.3v36.1H175.8V17.3H401.3 M407.3,11.3H169.8v48.1h237.5V11.3L407.3,11.3z"/>
	</g>
	<rect x="171.9" y="14.2" class="st6" width="233.3" height="302.8"/>
	<text transform="matrix(1 0 0 1 186.4422 322.9672)" class="st7 st3 st4 st8">A</text>
	<circle class="st9" cx="285" cy="258.1" r="5.1"/>
	<circle class="st10" cx="260.3" cy="163.6" r="2.2"/>
	<circle class="st9" cx="262.6" cy="219.6" r="2.5"/>
	<g class="st9">
		<path class="st11" d="M396.1,24.7c1.1,0,2,0.9,2,2V309c0,1.1-0.9,2-2,2H181.9c-1.1,0-2-0.9-2-2V26.7c0-1.1,0.9-2,2-2H396.1
			 M396.1,14.7H181.9c-6.6,0-12,5.4-12,12V309c0,6.6,5.4,12,12,12h214.2c6.6,0,12-5.4,12-12V26.7C408.1,20.1,402.7,14.7,396.1,14.7
			L396.1,14.7z"/>
	</g>
	<g>
		<defs>
			<path id="RED_1_" d="M408.7,298.4c-8.7,1.8,14.9-20.2,0-19.7c-18.7,0.7-24.1-3.9-30.1-12.3c-15.1-21.3-37.4,1.2-49.3-27.7
				c-9.5-23.1-44.1-0.1-57.9-15.1c-9.7-10.5,1.6-9.1-5.9-22.4c-7.2-12.7-32.2-16.7-91.5,3.4l0.1-75.3l234.6-4L408.7,298.4z"/>
		</defs>
		<clipPath id="RED_2_">
			<use xlink:href="#RED_1_"  style="overflow:visible;"/>
		</clipPath>
		<g class="st12">
			<text transform="matrix(1 0 0 1 186.4422 322.9669)" class="st1 st3 st4 st8">A</text>
		</g>
	</g>
	<text transform="matrix(1 0 0 1 1.182556e-04 320.9672)"><tspan x="0" y="0" class="st1 st3 st4 st8"> </tspan><tspan x="54.8" y="0" class="st1 st3 st4 st13"> </tspan><tspan x="114.2" y="0" class="st1 st3 st4 st14">T</tspan><tspan x="406.7" y="0" class="st1 st3 st4 st8">H</tspan></text>
	<text transform="matrix(1.0477 0 0 1 304.0601 316.3629)" class="st1 st3 st15 st16">S</text>
	<text transform="matrix(1.0477 0 0 1 3.0601 317.2672)" class="st1 st3 st15 st16">S</text>
</g>
<g id="bubbles">
	<circle class="st1" cx="191.6" cy="219.6" r="4.4"/>
	<circle class="st1" cx="351.8" cy="140.9" r="4.4"/>
	<circle class="st1" cx="220.7" cy="140.9" r="4.4"/>
	<circle class="st1" cx="351.8" cy="173.2" r="2.2"/>
	<circle class="st1" cx="316.6" cy="198.6" r="2.2"/>
	<path class="st1" d="M297.6,173.7c-0.9,0.8-1,2.2-0.2,3.1c0.8,0.9,2.2,1,3.1,0.2c0.9-0.8,1-2.2,0.2-3.1S298.5,172.9,297.6,173.7z"
		/>
	<circle class="st1" cx="184.1" cy="151.5" r="2.2"/>
	<circle class="st1" cx="222.9" cy="208.2" r="2.2"/>
	<circle class="st7" cx="341.6" cy="215.2" r="5.1"/>
	<circle class="st7" cx="368.2" cy="263.2" r="2.6"/>
	<circle class="st7" cx="349.3" cy="270.5" r="2.5"/>
	<path class="st7" d="M304.2,236.1c-1.2,0.8-1.4,2.4-0.6,3.6c0.8,1.2,2.4,1.4,3.6,0.6c1.2-0.8,1.4-2.4,0.6-3.6
		C307,235.5,305.4,235.2,304.2,236.1z"/>
	<circle class="st7" cx="182.8" cy="196" r="2.5"/>
	<circle class="st7" cx="218.1" cy="250" r="2.6"/>
</g>
</svg>
